<svg width="103" height="32" viewBox="0 0 103 32" fill="none" xmlns="http://www.w3.org/2000/svg">
<path d="M54.3372 8.04048C54.3372 9.19374 53.408 10.1224 52.2547 10.1224C51.1015 10.1224 50.1728 9.19374 50.1728 8.04048C50.1728 6.88723 51.0698 5.9586 52.2547 5.9586C53.4406 5.9906 54.3372 6.91955 54.3372 8.04048ZM45.7524 12.2369V12.7495C45.7524 12.7495 44.7598 11.4676 42.6456 11.4676C39.1545 11.4676 36.4313 14.1264 36.4313 17.8099C36.4313 21.4617 39.1225 24.1522 42.6456 24.1522C44.7918 24.1522 45.7524 22.8389 45.7524 22.8389V23.3832C45.7524 23.6395 45.9451 23.8312 46.2011 23.8312H48.7953V11.787H46.2011C45.9451 11.7879 45.7524 12.0126 45.7524 12.2369ZM45.7524 19.9561C45.2724 20.661 44.3112 21.2697 43.1583 21.2697C41.1084 21.2697 39.5385 19.9884 39.5385 17.8099C39.5385 15.6317 41.1084 14.3504 43.1583 14.3504C44.2795 14.3504 45.3044 14.9911 45.7524 15.6637V19.9561ZM50.7175 11.7879H53.7923V23.8322H50.7175V11.7879ZM96.6509 11.4673C94.5367 11.4673 93.5435 12.7492 93.5435 12.7492V5.9906H90.4687V23.8322H93.0635C93.3198 23.8322 93.5115 23.6078 93.5115 23.3835V22.8392C93.5115 22.8392 94.5047 24.1525 96.6183 24.1525C100.11 24.1525 102.833 21.4626 102.833 17.8108C102.833 14.1591 100.11 11.4673 96.6509 11.4673ZM96.1383 21.2373C94.9527 21.2373 94.0241 20.6293 93.5435 19.9241V15.6317C94.0241 14.9911 95.049 14.3184 96.1383 14.3184C98.1882 14.3184 99.7577 15.5997 99.7577 17.7779C99.7577 19.9561 98.1885 21.2373 96.1383 21.2373ZM88.8674 16.6893V23.8642H85.7919V17.0413C85.7919 15.0557 85.1513 14.2544 83.4227 14.2544C82.4941 14.2544 81.5328 14.7351 80.9232 15.44V23.8325H77.8491V11.7882H80.2826C80.5389 11.7882 80.7313 12.0126 80.7313 12.2369V12.7495C81.6282 11.8202 82.8131 11.4676 83.9981 11.4676C85.3436 11.4676 86.4649 11.8526 87.3618 12.6212C88.4505 13.5181 88.8674 14.6711 88.8674 16.6893ZM70.3846 11.4673C68.271 11.4673 67.2778 12.7492 67.2778 12.7492V5.9906H64.203V23.8322H66.7971C67.0535 23.8322 67.2458 23.6078 67.2458 23.3835V22.8392C67.2458 22.8392 68.239 24.1525 70.3526 24.1525C73.8443 24.1525 76.5669 21.4626 76.5669 17.8108C76.5989 14.1588 73.8764 11.4673 70.3846 11.4673ZM69.872 21.2373C68.687 21.2373 67.7584 20.6293 67.2778 19.9241V15.6317C67.7584 14.9911 68.7833 14.3184 69.872 14.3184C71.9225 14.3184 73.4917 15.5997 73.4917 17.7779C73.4917 19.9561 71.9225 21.2373 69.872 21.2373ZM61.5441 11.4673C62.4727 11.4673 62.9534 11.6279 62.9534 11.6279V14.4784C62.9534 14.4784 60.3909 13.6135 58.7896 15.4397V23.8638H55.7142V11.7879H58.309C58.5653 11.7879 58.757 12.0122 58.757 12.2366V12.7492C59.3342 12.0762 60.5835 11.4673 61.5441 11.4673ZM29.6091 22.7429C29.4491 22.3586 29.2888 21.9423 29.1288 21.5897C28.8721 21.0133 28.6158 20.4684 28.3922 19.9561L28.3601 19.9241C26.1496 15.1191 23.7798 10.2507 21.2809 5.4463L21.1849 5.25365C20.9221 4.75525 20.666 4.25336 20.4166 3.74809C20.096 3.17114 19.776 2.56315 19.2634 1.9862C18.2384 0.704946 16.7649 0 15.1956 0C13.5937 0 12.1525 0.70495 11.0959 1.92189C10.6152 2.49819 10.2626 3.10683 9.9426 3.68377C9.69261 4.18872 9.43649 4.69061 9.1743 5.18934L9.07798 5.38197C6.61147 10.1864 4.20928 15.0551 1.99908 19.8598L1.96677 19.9234C1.74277 20.4367 1.48614 20.981 1.22982 21.557C1.06982 21.9096 0.909827 22.294 0.74983 22.7103C0.333199 23.8952 0.204875 25.0165 0.365512 26.17C0.717825 28.5726 2.31907 30.5898 4.52959 31.4874C5.36253 31.84 6.22747 32 7.1241 32C7.38041 32 7.70041 31.968 7.95705 31.9357C9.01431 31.8077 10.1032 31.4557 11.1605 30.8471C12.4738 30.1101 13.723 29.0535 15.1323 27.5159C16.5415 29.0535 17.8228 30.1101 19.104 30.8471C20.1616 31.4557 21.2502 31.8077 22.3071 31.9357C22.5635 31.9683 22.8841 32 23.1404 32C24.0374 32 24.934 31.84 25.7346 31.4874C27.9771 30.5898 29.5464 28.5406 29.899 26.17C30.1534 25.0491 30.0254 23.9285 29.6091 22.7429ZM15.1633 24.4085C13.4334 22.2303 12.3122 20.1804 11.9282 18.4512C11.7682 17.7142 11.7358 17.0736 11.8322 16.497C11.8958 15.9843 12.0885 15.5357 12.3448 15.1514C12.9534 14.2871 13.9784 13.7421 15.1636 13.7421C16.3492 13.7421 17.4061 14.2548 17.9828 15.1514C18.2391 15.5357 18.4311 15.9846 18.4957 16.497C18.5914 17.0739 18.5594 17.7462 18.3994 18.4512C18.0138 20.1484 16.8925 22.1986 15.1633 24.4085ZM27.9432 25.914C27.7192 27.5796 26.5979 29.0215 25.0287 29.6621C24.2601 29.9821 23.4268 30.0784 22.5945 29.9821C21.7939 29.8858 20.9926 29.6295 20.1603 29.1495C19.0071 28.5082 17.8541 27.5159 16.5086 26.042C18.6224 23.4478 19.9037 21.077 20.3843 18.9635C20.6086 17.9702 20.641 17.0736 20.5443 16.2403C20.4166 15.4397 20.128 14.7027 19.6797 14.0621C18.6861 12.6202 17.0202 11.7879 15.163 11.7879C13.3057 11.7879 11.6398 12.6529 10.6469 14.0621C10.1986 14.7027 9.90996 15.4397 9.78196 16.2403C9.65396 17.0736 9.68564 18.0022 9.94196 18.9635C10.4223 21.077 11.7355 23.4795 13.8174 26.074C12.5042 27.5476 11.3189 28.5409 10.1656 29.1815C9.33269 29.6621 8.53239 29.9184 7.73177 30.0141C6.86715 30.1104 6.03388 29.9821 5.29726 29.6941C3.72801 29.0535 2.60675 27.6116 2.38276 25.946C2.28676 25.1454 2.35044 24.3448 2.67107 23.4478C2.76675 23.1272 2.92738 22.8072 3.08738 22.4229C3.3117 21.9103 3.56737 21.3653 3.82401 20.821L3.85633 20.7573C6.06621 15.9843 8.4364 11.1156 10.9029 6.37523L10.9989 6.1826C11.2555 5.70261 11.5119 5.18998 11.7678 4.70935C12.0242 4.19672 12.3122 3.71609 12.6648 3.29945C13.3374 2.53147 14.234 2.11452 15.2273 2.11452C16.2206 2.11452 17.1172 2.53147 17.7898 3.29945C18.1424 3.71705 18.4304 4.19768 18.6867 4.70935C18.9434 5.18998 19.1997 5.70261 19.4554 6.1826L19.5517 6.37523C21.9806 11.1353 24.3193 15.9409 26.5666 20.7893V20.8213C26.8232 21.3346 27.0472 21.9106 27.3035 22.4239C27.4635 22.8075 27.6238 23.1275 27.7198 23.4482C27.9755 24.2802 28.0715 25.0814 27.9432 25.914Z" fill="#191825" fill-opacity="0.5"/>
</svg>
