<svg width="192" height="271" viewBox="0 0 192 271" fill="none" xmlns="http://www.w3.org/2000/svg">
<g filter="url(#filter0_ddddd_1_235)">
<rect width="100" height="100" rx="50" transform="matrix(-1 0 0 1 146 9)" fill="#5D50C6"/>
<path d="M101.586 58H88C87.4477 58 87 58.4478 87 59C87 59.5523 87.4477 60 88 60H101.586L98.3431 63.2427C97.9526 63.6332 97.9526 64.2664 98.3431 64.6569C98.7337 65.0474 99.3668 65.0474 99.7574 64.6569L104 60.4143C104.781 59.6332 104.781 58.3669 104 57.5858L99.7574 53.3432C99.3668 52.9527 98.7337 52.9527 98.3431 53.3432C97.9526 53.7337 97.9526 54.3669 98.3431 54.7574L101.586 58Z" fill="white"/>
</g>
<defs>
<filter id="filter0_ddddd_1_235" x="0" y="0" width="192" height="271" filterUnits="userSpaceOnUse" color-interpolation-filters="sRGB">
<feFlood flood-opacity="0" result="BackgroundImageFix"/>
<feColorMatrix in="SourceAlpha" type="matrix" values="0 0 0 0 0 0 0 0 0 0 0 0 0 0 0 0 0 0 127 0" result="hardAlpha"/>
<feOffset/>
<feColorMatrix type="matrix" values="0 0 0 0 0 0 0 0 0 0 0 0 0 0 0 0 0 0 0.08 0"/>
<feBlend mode="normal" in2="BackgroundImageFix" result="effect1_dropShadow_1_235"/>
<feColorMatrix in="SourceAlpha" type="matrix" values="0 0 0 0 0 0 0 0 0 0 0 0 0 0 0 0 0 0 127 0" result="hardAlpha"/>
<feOffset dy="7"/>
<feGaussianBlur stdDeviation="8"/>
<feColorMatrix type="matrix" values="0 0 0 0 0 0 0 0 0 0 0 0 0 0 0 0 0 0 0.07 0"/>
<feBlend mode="normal" in2="effect1_dropShadow_1_235" result="effect2_dropShadow_1_235"/>
<feColorMatrix in="SourceAlpha" type="matrix" values="0 0 0 0 0 0 0 0 0 0 0 0 0 0 0 0 0 0 127 0" result="hardAlpha"/>
<feOffset dy="29"/>
<feGaussianBlur stdDeviation="14.5"/>
<feColorMatrix type="matrix" values="0 0 0 0 0 0 0 0 0 0 0 0 0 0 0 0 0 0 0.06 0"/>
<feBlend mode="normal" in2="effect2_dropShadow_1_235" result="effect3_dropShadow_1_235"/>
<feColorMatrix in="SourceAlpha" type="matrix" values="0 0 0 0 0 0 0 0 0 0 0 0 0 0 0 0 0 0 127 0" result="hardAlpha"/>
<feOffset dy="65"/>
<feGaussianBlur stdDeviation="19.5"/>
<feColorMatrix type="matrix" values="0 0 0 0 0 0 0 0 0 0 0 0 0 0 0 0 0 0 0.04 0"/>
<feBlend mode="normal" in2="effect3_dropShadow_1_235" result="effect4_dropShadow_1_235"/>
<feColorMatrix in="SourceAlpha" type="matrix" values="0 0 0 0 0 0 0 0 0 0 0 0 0 0 0 0 0 0 127 0" result="hardAlpha"/>
<feOffset dy="116"/>
<feGaussianBlur stdDeviation="23"/>
<feColorMatrix type="matrix" values="0 0 0 0 0 0 0 0 0 0 0 0 0 0 0 0 0 0 0.01 0"/>
<feBlend mode="normal" in2="effect4_dropShadow_1_235" result="effect5_dropShadow_1_235"/>
<feBlend mode="normal" in="SourceGraphic" in2="effect5_dropShadow_1_235" result="shape"/>
</filter>
</defs>
</svg>
