<svg width="24" height="25" viewBox="0 0 24 25" fill="none" xmlns="http://www.w3.org/2000/svg">
<path d="M12 23.1299C6.07 23.1299 1.25 18.3099 1.25 12.3799C1.25 6.44988 6.07 1.62988 12 1.62988C17.93 1.62988 22.75 6.44988 22.75 12.3799C22.75 18.3099 17.93 23.1299 12 23.1299ZM12 3.12988C6.9 3.12988 2.75 7.27988 2.75 12.3799C2.75 17.4799 6.9 21.6299 12 21.6299C17.1 21.6299 21.25 17.4799 21.25 12.3799C21.25 7.27988 17.1 3.12988 12 3.12988Z" fill="#292D32"/>
<path d="M12.0002 15.3898C11.8102 15.3898 11.6202 15.3198 11.4702 15.1698L7.94016 11.6398C7.65016 11.3498 7.65016 10.8698 7.94016 10.5798C8.23016 10.2898 8.71016 10.2898 9.00016 10.5798L12.0002 13.5798L15.0002 10.5798C15.2902 10.2898 15.7702 10.2898 16.0602 10.5798C16.3502 10.8698 16.3502 11.3498 16.0602 11.6398L12.5302 15.1698C12.3802 15.3198 12.1902 15.3898 12.0002 15.3898Z" fill="#292D32"/>
</svg>
