<svg width="100" height="101" viewBox="0 0 100 101" fill="none" xmlns="http://www.w3.org/2000/svg">
<rect y="0.5" width="100" height="100" rx="50" fill="white"/>
<rect x="0.5" y="1" width="99" height="99" rx="49.5" stroke="#191825" stroke-opacity="0.1"/>
<path d="M44.4142 49.5H58C58.5523 49.5 59 49.9477 59 50.5C59 51.0523 58.5523 51.5 58 51.5H44.4142L47.6568 54.7426C48.0473 55.1332 48.0473 55.7663 47.6568 56.1569C47.2663 56.5474 46.6331 56.5474 46.2426 56.1569L42 51.9142C41.2189 51.1332 41.2189 49.8668 42 49.0858L46.2426 44.8431C46.6331 44.4526 47.2663 44.4526 47.6568 44.8431C48.0473 45.2337 48.0473 45.8668 47.6568 46.2574L44.4142 49.5Z" fill="#191825"/>
</svg>
