<svg width="32" height="32" viewBox="0 0 32 32" fill="none" xmlns="http://www.w3.org/2000/svg">
<path d="M16 32C24.8366 32 32 24.8366 32 16C32 7.16344 24.8366 0 16 0C7.16344 0 0 7.16344 0 16C0 24.8366 7.16344 32 16 32Z" fill="#5D50C6"/>
<path d="M20.8 8.19995H11.2C9.53328 8.19995 8.19995 9.53328 8.19995 11.2V20.8C8.19995 22.4666 9.53328 23.8 11.2 23.8H20.8C22.4666 23.8 23.8 22.4666 23.8 20.8V11.1999C23.8 9.53328 22.4666 8.19995 20.8 8.19995ZM21.6666 9.99995H22V12.6666H19.3333V9.99995H21.6666ZM13.8 14.4C14.2666 13.7333 15.1333 13.2666 16 13.2666C16.8666 13.2666 17.7333 13.7333 18.2 14.4C18.5333 14.8666 18.7333 15.4 18.7333 16C18.7333 17.5333 17.4666 18.7333 16 18.7333C14.5333 18.7333 13.2666 17.5333 13.2666 16C13.2666 15.4 13.4666 14.8666 13.8 14.4ZM22.2666 20.8C22.2666 21.6 21.6 22.2666 20.8 22.2666H11.2C10.4 22.2666 9.73329 21.6 9.73329 20.8V14.4H12.0666C11.8666 14.8666 11.7333 15.4666 11.7333 16C11.7333 18.3333 13.6666 20.2666 16 20.2666C18.3333 20.2666 20.2666 18.3333 20.2666 16C20.2666 15.4666 20.1333 14.8666 19.9333 14.4H22.2666L22.2666 20.8Z" fill="white"/>
</svg>
