<svg width="65" height="170" viewBox="0 0 65 170" fill="none" xmlns="http://www.w3.org/2000/svg">
<g clip-path="url(#clip0_1_27)">
<path d="M44.0254 169.949L65 169.949L54.5127 159.461L44.0254 169.949Z" fill="#FF5722"/>
<path d="M44.0254 134.41L65 134.41L54.5127 123.923L44.0254 134.41Z" fill="#FF5722"/>
<path d="M44.0254 98.8564L65 98.8564L54.5127 88.3691L44.0254 98.8564Z" fill="#FF5722"/>
<path d="M44.0254 63.3179L65 63.3179L54.5127 52.8306L44.0254 63.3179Z" fill="#FF5722"/>
<path d="M44.0254 27.7791L65 27.7791L54.5127 17.2766L44.0254 27.7791Z" fill="#FF5722"/>
<path d="M0.000263214 152.672L20.9749 152.672L10.4876 142.185L0.000263214 152.672Z" fill="#FF5722"/>
<path d="M1.90735e-05 117.118L20.9746 117.118L10.4873 106.631L1.90735e-05 117.118Z" fill="#FF5722"/>
<path d="M1.90735e-05 81.5796L20.9746 81.5796L10.4873 71.0923L1.90735e-05 81.5796Z" fill="#FF5722"/>
<path d="M1.90735e-05 46.041L20.9746 46.041L10.4873 35.5537L1.90735e-05 46.041Z" fill="#FF5722"/>
<path d="M1.90735e-05 10.4873L20.9746 10.4873L10.4873 1.33146e-05L1.90735e-05 10.4873Z" fill="#FF5722"/>
</g>
<defs>
<clipPath id="clip0_1_27">
<rect width="65" height="169.949" fill="white" transform="translate(65 169.949) rotate(180)"/>
</clipPath>
</defs>
</svg>
