<svg width="25" height="24" viewBox="0 0 25 24" fill="none" xmlns="http://www.w3.org/2000/svg">
<path d="M18.2518 14.32C17.9928 14.571 17.8738 14.934 17.9328 15.29L18.8218 20.21C18.8968 20.627 18.7208 21.049 18.3718 21.29C18.0298 21.54 17.5748 21.57 17.2018 21.37L12.7728 19.06C12.6188 18.978 12.4478 18.934 12.2728 18.929H12.0018C11.9078 18.943 11.8158 18.973 11.7318 19.019L7.30176 21.34C7.08276 21.45 6.83476 21.489 6.59176 21.45C5.99976 21.338 5.60476 20.774 5.70176 20.179L6.59176 15.259C6.65076 14.9 6.53176 14.535 6.27276 14.28L2.66176 10.78C2.35976 10.487 2.25476 10.047 2.39276 9.65C2.52676 9.254 2.86876 8.965 3.28176 8.9L8.25176 8.179C8.62976 8.14 8.96176 7.91 9.13176 7.57L11.3218 3.08C11.3738 2.98 11.4408 2.888 11.5218 2.81L11.6118 2.74C11.6588 2.688 11.7128 2.645 11.7728 2.61L11.8818 2.57L12.0518 2.5H12.4728C12.8488 2.539 13.1798 2.764 13.3528 3.1L15.5718 7.57C15.7318 7.897 16.0428 8.124 16.4018 8.179L21.3718 8.9C21.7918 8.96 22.1428 9.25 22.2818 9.65C22.4128 10.051 22.2998 10.491 21.9918 10.78L18.2518 14.32Z" fill="#FF5722"/>
</svg>
