<svg width="32" height="32" viewBox="0 0 32 32" fill="none" xmlns="http://www.w3.org/2000/svg">
<path d="M16 32C24.8366 32 32 24.8366 32 16C32 7.16344 24.8366 0 16 0C7.16344 0 0 7.16344 0 16C0 24.8366 7.16344 32 16 32Z" fill="#5D50C6"/>
<path d="M25.8006 11.4986C25.115 11.8027 24.3774 12.0083 23.6039 12.1002C24.3937 11.627 24.9998 10.8783 25.2858 9.98471C24.5468 10.4231 23.728 10.7411 22.8572 10.9125C22.1596 10.1695 21.1656 9.7052 20.065 9.7052C17.9532 9.7052 16.2405 11.4179 16.2405 13.5297C16.2405 13.8294 16.2745 14.1212 16.3401 14.4013C13.1616 14.2418 10.3434 12.7194 8.45699 10.4048C8.12785 10.9696 7.93904 11.627 7.93904 12.3278C7.93904 13.6543 8.61471 14.8254 9.64035 15.511C9.01373 15.4914 8.42362 15.3194 7.90824 15.0322C7.90795 15.0484 7.90795 15.0647 7.90795 15.0807C7.90795 16.9337 9.22679 18.4793 10.976 18.8304C10.6554 18.9182 10.3169 18.9647 9.96863 18.9647C9.72163 18.9647 9.48234 18.941 9.24903 18.8965C9.73561 20.4156 11.1477 21.5214 12.8216 21.5525C11.5125 22.5784 9.86367 23.1896 8.07138 23.1896C7.76335 23.1896 7.45817 23.1716 7.15955 23.136C8.85116 24.2215 10.8619 24.8544 13.0216 24.8544C20.0561 24.8544 23.9031 19.0269 23.9031 13.9726C23.9031 13.8069 23.8994 13.6417 23.892 13.478C24.6398 12.939 25.2881 12.2656 25.8006 11.4986Z" fill="#F1F2F2"/>
</svg>
