<svg width="189" height="32" viewBox="0 0 189 32" fill="none" xmlns="http://www.w3.org/2000/svg">
<mask id="mask0_1_138" style="mask-type:luminance" maskUnits="userSpaceOnUse" x="0" y="0" width="189" height="32">
<path d="M188.696 0H0.0927734V32H188.696V0Z" fill="white"/>
</mask>
<g mask="url(#mask0_1_138)">
<mask id="mask1_1_138" style="mask-type:luminance" maskUnits="userSpaceOnUse" x="0" y="0" width="189" height="32">
<path d="M188.696 0H0.0927734V32H188.696V0Z" fill="white"/>
</mask>
<g mask="url(#mask1_1_138)">
<path d="M74.0498 3.50312C74.0498 1.92283 75.3317 0.633545 76.9194 0.633545C78.4997 0.633545 79.789 1.91546 79.789 3.50312C79.7337 5.08342 78.4002 6.31744 76.8162 6.26219C75.3133 6.20693 74.1087 5.00238 74.0498 3.50312Z" fill="#191825" fill-opacity="0.5"/>
</g>
<mask id="mask2_1_138" style="mask-type:luminance" maskUnits="userSpaceOnUse" x="0" y="0" width="189" height="32">
<path d="M188.696 0H0.0927734V32H188.696V0Z" fill="white"/>
</mask>
<g mask="url(#mask2_1_138)">
<path d="M119.274 22.6177C119.274 21.0263 120.556 19.7407 122.133 19.7407C123.72 19.7407 125.006 21.0263 125.006 22.6177C125.006 24.2053 123.72 25.4909 122.133 25.4909C120.556 25.4909 119.274 24.2016 119.274 22.6177Z" fill="#191825" fill-opacity="0.5"/>
</g>
<mask id="mask3_1_138" style="mask-type:luminance" maskUnits="userSpaceOnUse" x="0" y="0" width="189" height="32">
<path d="M188.696 0H0.0927734V32H188.696V0Z" fill="white"/>
</mask>
<g mask="url(#mask3_1_138)">
<path d="M27.0206 21.3763C24.5562 21.3763 22.836 19.4166 22.836 16.6133C22.836 13.8137 24.5526 11.854 27.0206 11.854C29.4997 11.854 31.2384 13.8137 31.2384 16.6133C31.2347 19.4608 29.5402 21.3763 27.0206 21.3763ZM27.0206 7.66939C21.8009 7.66939 18.0104 11.4304 18.0104 16.6133C18.0104 21.7962 21.8046 25.5573 27.0206 25.5573C32.2662 25.5573 36.0677 21.7962 36.0677 16.617C36.0677 11.4304 32.2588 7.66939 27.0206 7.66939ZM68.5024 17.0627C68.3219 16.7128 68.0898 16.3849 67.8209 16.0976L67.6625 15.9318L67.8283 15.7735C68.0677 15.5193 68.3145 15.2209 68.5466 14.8746L73.1548 8.02302H67.5594L64.0967 13.3827C63.9015 13.6738 63.5073 13.8101 62.9143 13.8101H62.1223V3.67629C62.1223 1.65027 60.8625 1.37769 59.4958 1.37769H57.1604L57.1641 25.292H62.1186V18.1236H62.5827C63.1463 18.1236 63.5294 18.1899 63.7099 18.4957L66.4432 23.6565C67.2094 25.0563 67.9682 25.2957 69.3975 25.2957H73.2064L70.3737 20.6212L68.5024 17.0627ZM92.5714 7.63255C90.0481 7.63255 88.4384 8.75238 87.5396 9.70277L87.2412 10.0085L87.1344 9.59594C86.8691 8.57925 85.9777 8.0267 84.6331 8.0267H82.4119L82.4266 25.2957H87.3517V17.339C87.3517 16.5581 87.4512 15.8876 87.6574 15.2688C88.2063 13.4049 89.735 12.2408 91.6432 12.2408C93.1793 12.2408 93.7834 13.0512 93.7834 15.1509V22.6729C93.7834 24.4595 94.6085 25.2994 96.4025 25.2994H98.7416L98.7305 14.3147C98.7305 9.93484 96.5977 7.63255 92.5714 7.63255ZM76.9822 8.02302H74.6467L74.6615 21.3763V25.292H77.1516L77.24 25.2957L78.4041 25.292H79.5571V25.2884H79.5681L79.5792 10.6495C79.5718 8.88131 78.7282 8.02302 76.9822 8.02302ZM46.3562 21.3763C43.8918 21.3763 42.1715 19.4166 42.1715 16.6133C42.1715 13.8137 43.8918 11.854 46.3562 11.854C48.8316 11.854 50.574 13.8137 50.574 16.6133C50.5703 19.4608 48.8758 21.3763 46.3562 21.3763ZM46.3562 7.66939C41.1327 7.66939 37.3386 11.4304 37.3386 16.6133C37.3386 21.7962 41.1327 25.5573 46.3562 25.5573C51.5907 25.5573 55.4033 21.7962 55.4033 16.617C55.4033 11.4304 51.5944 7.66939 46.3562 7.66939Z" fill="#191825" fill-opacity="0.5"/>
</g>
</g>
<mask id="mask4_1_138" style="mask-type:luminance" maskUnits="userSpaceOnUse" x="0" y="0" width="189" height="32">
<path d="M188.696 0H0.0927734V32H188.696V0Z" fill="white"/>
</mask>
<g mask="url(#mask4_1_138)">
<mask id="mask5_1_138" style="mask-type:luminance" maskUnits="userSpaceOnUse" x="0" y="0" width="189" height="32">
<path d="M188.656 0.629883H0.0927734V31.9595H188.656V0.629883Z" fill="white"/>
</mask>
<g mask="url(#mask5_1_138)">
<mask id="mask6_1_138" style="mask-type:luminance" maskUnits="userSpaceOnUse" x="0" y="0" width="189" height="32">
<path d="M188.696 0H0.0927734V32H188.696V0Z" fill="white"/>
</mask>
<g mask="url(#mask6_1_138)">
<path d="M151.885 21.3763C149.421 21.3763 147.701 19.4166 147.701 16.6134C147.701 13.8138 149.421 11.8541 151.885 11.8541C154.365 11.8541 156.103 13.8138 156.103 16.6134C156.103 19.4608 154.405 21.3763 151.885 21.3763ZM151.885 7.66943C146.662 7.66943 142.868 11.4305 142.868 16.6134C142.868 21.7963 146.655 25.5573 151.885 25.5573C157.124 25.5573 160.932 21.7963 160.932 16.6171C160.932 11.4305 157.12 7.66943 151.885 7.66943Z" fill="#191825" fill-opacity="0.5"/>
</g>
<mask id="mask7_1_138" style="mask-type:luminance" maskUnits="userSpaceOnUse" x="0" y="0" width="189" height="32">
<path d="M188.696 0H0.0927734V32H188.696V0Z" fill="white"/>
</mask>
<g mask="url(#mask7_1_138)">
<path d="M109.107 20.6101C106.414 20.6101 105.46 18.2636 105.46 16.0645C105.46 15.092 105.707 11.9351 108.857 11.9351C110.419 11.9351 112.5 12.3845 112.5 16.2229C112.496 19.8513 110.651 20.6101 109.107 20.6101ZM115.053 7.97883C114.117 7.97883 113.399 8.35088 113.038 9.03236L112.905 9.29758L112.677 9.09498C111.881 8.40613 110.455 7.59204 108.146 7.59204C103.541 7.59204 100.443 11.0473 100.443 16.1971C100.443 21.3395 103.652 24.9311 108.241 24.9311C109.807 24.9311 111.048 24.5627 112.028 23.8186L112.404 23.535V24.0138C112.404 26.3235 110.912 27.5943 108.208 27.5943C106.89 27.5943 105.696 27.2739 104.897 26.9829C103.854 26.6661 103.239 26.9313 102.819 27.9738L102.425 28.9389L101.872 30.3497L102.215 30.5302C103.946 31.4511 106.201 31.9963 108.234 31.9963C112.426 31.9963 117.322 29.8524 117.322 23.8112L117.336 7.96778H115.053" fill="#191825" fill-opacity="0.5"/>
</g>
</g>
</g>
<mask id="mask8_1_138" style="mask-type:luminance" maskUnits="userSpaceOnUse" x="0" y="0" width="189" height="32">
<path d="M188.696 0H0.0927734V32H188.696V0Z" fill="white"/>
</mask>
<g mask="url(#mask8_1_138)">
<mask id="mask9_1_138" style="mask-type:luminance" maskUnits="userSpaceOnUse" x="0" y="0" width="189" height="32">
<path d="M188.696 0H0.0927734V32H188.696V0Z" fill="white"/>
</mask>
<g mask="url(#mask9_1_138)">
<path d="M8.68677 21.1737L4.67525 21.17V16.3812C4.67525 15.3535 5.07309 14.8267 5.94612 14.7015H8.6794C10.6281 14.7015 11.8879 15.9318 11.8952 17.921C11.8952 19.9654 10.6649 21.1737 8.68677 21.1737ZM4.67525 8.25136V6.99154C4.67525 5.88644 5.1394 5.36337 6.16714 5.29706H8.21894C9.97605 5.29706 11.0296 6.35059 11.0296 8.11138C11.0296 9.45592 10.3076 11.0215 8.28156 11.0215H4.67525V8.25136ZM13.7997 13.0328L13.0777 12.6239L13.7076 12.0824C14.448 11.4525 15.6747 10.0269 15.6747 7.56988C15.6747 3.80886 12.7609 1.38501 8.24841 1.38501H2.51663C1.17945 1.4329 0.107508 2.52694 0.0927734 3.86412V25.1999H8.35524C13.3724 25.1999 16.6066 22.4703 16.6066 18.2415C16.6066 15.9723 15.5568 14.0237 13.7997 13.0328Z" fill="#191825" fill-opacity="0.5"/>
</g>
<mask id="mask10_1_138" style="mask-type:luminance" maskUnits="userSpaceOnUse" x="0" y="0" width="189" height="32">
<path d="M188.696 0H0.0927734V32H188.696V0Z" fill="white"/>
</mask>
<g mask="url(#mask10_1_138)">
<path d="M182.924 7.68776C180.869 7.69145 178.92 8.63815 177.638 10.2516L177.281 10.701L177.001 10.1963C176.087 8.53133 174.522 7.69145 172.334 7.69145C170.046 7.69145 168.51 8.966 167.795 9.72852L167.331 10.2332L167.151 9.56644C166.893 8.60868 166.038 8.08192 164.749 8.08192H162.679L162.657 25.2846H167.357V17.6889C167.357 17.0222 167.438 16.3665 167.604 15.6776C168.053 13.8432 169.287 11.8687 171.361 12.064C172.636 12.1892 173.262 13.1764 173.262 15.0809V25.281H177.995V17.6852C177.995 16.8527 178.073 16.2265 178.261 15.6076C178.636 13.8542 179.929 12.0566 181.93 12.0566C183.377 12.0566 183.915 12.8744 183.915 15.0809V22.765C183.915 24.5 184.689 25.281 186.427 25.281H188.638L188.641 14.2999C188.656 9.90902 186.722 7.68776 182.924 7.68776ZM140.146 19.3097C140.131 19.3245 138.109 21.461 135.445 21.461C133.018 21.461 130.568 19.9728 130.568 16.6501C130.568 13.7806 132.469 11.773 135.191 11.773C136.075 11.773 137.077 12.0897 137.236 12.6202L137.258 12.7086C137.464 13.4638 138.153 13.9831 138.93 13.9795L141.505 13.9832V11.7287C141.505 8.75603 137.729 7.68408 135.184 7.68408C129.747 7.68408 125.805 11.4672 125.805 16.6796C125.805 21.8883 129.706 25.6714 135.084 25.6714C139.752 25.6714 142.286 22.6029 142.312 22.5771L142.444 22.4114L140.404 19.0261L140.146 19.3097Z" fill="#191825" fill-opacity="0.5"/>
</g>
</g>
</svg>
