<svg width="114" height="32" viewBox="0 0 114 32" fill="none" xmlns="http://www.w3.org/2000/svg">
<path d="M54.7706 25.0368H51.2556C51.2334 25.0368 51.2334 25.0368 51.2222 25.0257L48.1967 21.3327L45.1711 25.0257C45.16 25.0368 45.1489 25.0368 45.1378 25.0368H42.3235C42.3013 25.0368 42.2902 25.0257 42.2791 25.0146C42.2791 25.0034 42.2791 24.9812 42.2902 24.9701L46.7506 19.4974L42.3458 14.0803C42.3347 14.0581 42.3347 14.0469 42.3347 14.0247C42.3458 14.0136 42.3569 14.0024 42.368 14.0024H45.883C45.8941 14.0024 45.9053 14.0136 45.9164 14.0247L48.5749 17.3172L51.2778 14.0247C51.289 14.0136 51.3001 14.0024 51.3112 14.0024H54.1699C54.181 14.0024 54.2033 14.0136 54.2144 14.0247C54.2255 14.0469 54.2144 14.0581 54.2033 14.0803L50.032 19.0969L54.8151 24.9701C54.8262 24.9812 54.8262 25.0034 54.8262 25.0146C54.8039 25.0368 54.7928 25.0368 54.7706 25.0368Z" fill="#191825" fill-opacity="0.5"/>
<path d="M73.7805 15.9379C72.2232 15.9379 71.1665 16.8834 70.8551 18.5185H76.1498V18.4073C76.1498 17.1059 75.182 15.9379 73.7805 15.9379ZM78.875 20.2093C78.8639 20.2204 78.8527 20.2315 78.8416 20.2315H70.7994C70.9663 22.1002 72.1787 23.1681 74.1476 23.1681C75.36 23.1681 76.6503 22.7565 78.4634 21.7888C78.4968 21.7665 78.5302 21.7999 78.5302 21.8333V24.3027C78.5302 24.3249 78.519 24.336 78.5079 24.336C76.8172 25.0479 75.1153 25.5374 73.7805 25.5374C70.3211 25.5374 67.8073 23.0124 67.8073 19.5419C67.8073 16.0714 70.3211 13.5464 73.7805 13.5464C76.9395 13.5464 78.964 15.6709 78.964 18.5964C78.964 19.0747 78.8861 20.1759 78.875 20.2093Z" fill="#191825" fill-opacity="0.5"/>
<path d="M95.2039 11.711C94.214 11.711 93.4131 10.9212 93.4131 9.95349C93.4131 8.95239 94.214 8.14038 95.2039 8.14038C96.1939 8.14038 96.9948 8.95239 96.9948 9.95349C96.9948 10.9212 96.1939 11.711 95.2039 11.711ZM93.7579 25.0368C93.7245 25.0368 93.7134 25.0256 93.7134 24.9923V14.0358C93.7134 14.0135 93.7245 13.9913 93.7468 13.9913H96.65C96.6722 13.9913 96.6834 14.0135 96.6834 14.0358V24.9923C96.6834 25.0256 96.6611 25.0368 96.6389 25.0368H93.7579Z" fill="#191825" fill-opacity="0.5"/>
<path d="M60.0874 23.3906C59.5646 23.3906 59.0307 23.3127 58.4078 23.157L58.4189 16.127C59.142 15.8934 59.7649 15.7933 60.3878 15.7933C62.4011 15.7933 63.747 17.2727 63.747 19.4863C63.747 21.8555 62.3121 23.3906 60.0874 23.3906ZM60.8772 13.5464C60.0541 13.5464 59.2309 13.691 58.3633 13.9913H55.4713C55.449 13.9913 55.4268 14.0136 55.4268 14.0358V32C56.2944 31.8777 57.3622 31.5662 58.4078 30.8321V25.3705C59.1197 25.4706 59.7092 25.5374 60.2765 25.5374C64.2364 25.5374 66.7948 23.1681 66.7948 19.4974C66.7948 15.9935 64.3588 13.5464 60.8772 13.5464Z" fill="#191825" fill-opacity="0.5"/>
<path d="M88.4743 22.4783C87.5733 22.9566 86.7613 23.1791 86.0049 23.1791C84.214 23.1791 83.1351 21.911 83.1351 19.7865C83.1351 17.3393 84.5032 15.7487 86.6278 15.7487C87.2173 15.7487 87.7846 15.8933 88.4743 16.2047V22.4783ZM88.4743 8.19592V13.9244C87.6289 13.6797 86.8836 13.5685 86.1273 13.5685C82.679 13.5685 80.0873 16.1602 80.0873 19.6085C80.0873 23.0345 82.3787 25.5261 85.5377 25.5261C86.6278 25.5261 87.6512 25.248 88.8525 24.6362V25.6262C89.6422 25.4705 90.5544 25.159 91.4553 24.5139V7.01685C90.5766 7.1392 89.531 7.43953 88.4743 8.19592Z" fill="#191825" fill-opacity="0.5"/>
<path d="M106.75 22.4562C105.871 22.9567 105.126 23.2014 104.459 23.2014C102.534 23.2014 101.389 21.9334 101.389 19.8088C101.389 17.395 102.746 15.771 104.759 15.771C105.293 15.771 105.949 15.9824 106.75 16.4051V22.4562ZM109.731 13.8578C109.731 13.7911 109.675 13.7355 109.609 13.7355H107.262C107.195 13.7355 107.128 13.7911 107.128 13.8578V14.2583H107.073C105.994 13.7799 105.059 13.5686 104.158 13.5686C100.91 13.5686 98.363 16.2605 98.363 19.7087C98.363 23.1903 100.643 25.5262 104.036 25.5262C104.937 25.5262 106.105 25.4595 107.195 24.2136V25.6263C107.962 25.4595 108.875 25.1369 109.731 24.514V13.8578Z" fill="#191825" fill-opacity="0.5"/>
<path d="M34.2925 22.3004H41.5783C41.467 23.1124 41.189 24.069 40.5661 25.0367H32.9911C32.0678 25.0367 31.3003 24.3137 31.2113 23.4127C31.2113 23.4016 31.2002 23.3905 31.2002 23.3682V8.99687C31.2002 8.98575 31.2113 8.97462 31.2113 8.9635C31.3003 8.05139 32.0678 7.32837 32.9911 7.32837H41.5672C41.4559 8.14037 41.1778 9.11923 40.5438 10.087H34.2925V14.0024H40.4882C40.5104 14.0024 40.5327 14.0246 40.5327 14.0469V16.761C40.5327 16.7832 40.5104 16.8055 40.4882 16.8055H34.2925V22.3004Z" fill="#191825" fill-opacity="0.5"/>
<path d="M25.1715 25.2704C24.4485 25.2704 24.0036 24.7031 24.0036 24.0135C24.0036 23.2793 24.5152 22.7565 25.1715 22.7565C25.8167 22.7565 26.3283 23.2682 26.3283 24.0135C26.3283 24.7587 25.8167 25.2704 25.1715 25.2704ZM25.1715 22.623C24.4374 22.623 23.8033 23.1792 23.8033 24.0135C23.8033 24.8032 24.3706 25.4039 25.1715 25.4039C25.8945 25.4039 26.5286 24.8477 26.5286 24.0135C26.5286 23.1792 25.9057 22.623 25.1715 22.623Z" fill="#191825" fill-opacity="0.5"/>
<path d="M24.8486 23.9022V23.3905H25.1934C25.3714 23.3905 25.5716 23.4128 25.5716 23.6241C25.5716 23.88 25.3825 23.8911 25.1712 23.8911C25.1601 23.9022 24.8486 23.9022 24.8486 23.9022ZM25.8163 23.6575C25.8163 23.3238 25.6161 23.1792 25.2157 23.1792H24.5928V24.8255H24.8597V24.1247H25.1156L25.5383 24.8255H25.8497L25.3937 24.1024C25.6384 24.0802 25.8163 23.9578 25.8163 23.6575Z" fill="#191825" fill-opacity="0.5"/>
<path d="M112.134 15.8154C111.411 15.8154 110.966 15.2481 110.966 14.5585C110.966 13.8244 111.477 13.3016 112.134 13.3016C112.779 13.3016 113.29 13.8132 113.29 14.5585C113.29 15.3038 112.779 15.8154 112.134 15.8154ZM112.134 13.1792C111.399 13.1792 110.765 13.7354 110.765 14.5696C110.765 15.3594 111.333 15.96 112.134 15.96C112.857 15.96 113.491 15.4039 113.491 14.5696C113.491 13.7242 112.857 13.1792 112.134 13.1792Z" fill="#191825" fill-opacity="0.5"/>
<path d="M111.8 14.4472V13.9467H112.145C112.323 13.9467 112.523 13.9689 112.523 14.1803C112.523 14.4361 112.334 14.4472 112.123 14.4472H111.8ZM112.779 14.2137C112.779 13.88 112.579 13.7354 112.178 13.7354H111.555V15.3816H111.822V14.6808H112.078L112.501 15.3816H112.812L112.356 14.6586C112.59 14.6363 112.779 14.514 112.779 14.2137Z" fill="#191825" fill-opacity="0.5"/>
<path d="M15.772 10.0759L15.2492 8.58534L10.7554 2.58985L11.5563 2.38963L19.287 9.07476L23.8365 7.77333C24.3704 7.63985 24.9822 7.60648 25.4382 7.60648C24.0144 4.52531 21.3893 1.98919 17.9411 0.765622C11.1225 -1.67039 3.61422 1.9002 1.18933 8.72994C0.432943 10.8434 0.266093 13.0236 0.577546 15.0925L11.4673 11.3106L15.772 10.0759Z" fill="#191825" fill-opacity="0.5"/>
<path d="M25.9277 8.78564C25.5273 9.04148 24.9377 9.38631 24.3593 9.5754L19.7988 10.8768L16.7621 20.6431L15.9723 20.899L16.6175 13.4463L16.2615 11.9002L11.9902 13.1238L0.688843 15.76C1.58983 20.0981 4.65988 23.8912 9.14259 25.4818C15.9723 27.9178 23.4695 24.3472 25.9055 17.5175C26.9511 14.592 26.8843 11.522 25.9277 8.78564Z" fill="#191825" fill-opacity="0.5"/>
<path d="M16.2505 11.8889L16.6064 13.435L15.9612 20.8877L16.751 20.6318L19.7877 10.8655L24.3483 9.5641C24.9267 9.37501 25.5162 9.0413 25.9166 8.77434C25.772 8.3739 25.6163 7.98459 25.4383 7.59527C24.9712 7.59527 24.3705 7.61752 23.8366 7.76212L19.2871 9.06355L11.5564 2.37842L10.7555 2.57864L15.2382 8.57412L15.761 10.0647L11.4563 11.2993L0.566528 15.0813C0.599898 15.3038 0.644392 15.5373 0.688885 15.7598L11.9791 13.1013L16.2505 11.8889Z" fill="white"/>
</svg>
