<svg width="7" height="56" viewBox="0 0 7 56" fill="none" xmlns="http://www.w3.org/2000/svg">
<path d="M21.4896 14.868L25.0736 1.148H29.0216L23.5336 21H19.5576L15.0216 6.86L10.4856 21H6.45356L0.937563 1.148H5.02556L8.66556 14.812L13.0616 1.148H17.0656L21.4896 14.868ZM33.0048 12.544H39.1648C39.1088 11.172 38.2128 9.828 36.0848 9.828C34.1528 9.828 33.0888 11.284 33.0048 12.544ZM39.5288 16.128L42.6368 17.052C41.9368 19.432 39.7528 21.42 36.3648 21.42C32.5848 21.42 29.2528 18.704 29.2528 14.056C29.2528 9.66 32.5008 6.804 36.0288 6.804C40.2848 6.804 42.8328 9.52 42.8328 13.944C42.8328 14.476 42.7768 15.036 42.7768 15.092H32.9208C33.0048 16.912 34.5448 18.228 36.3928 18.228C38.1288 18.228 39.0808 17.36 39.5288 16.128ZM44.9253 17.248C44.9253 14.784 46.7453 13.412 49.0413 13.076L52.4293 12.572C53.2133 12.46 53.4653 12.068 53.4653 11.592C53.4653 10.612 52.7093 9.8 51.1413 9.8C49.5173 9.8 48.6213 10.836 48.5093 12.04L45.2053 11.34C45.4293 9.184 47.4173 6.804 51.1133 6.804C55.4813 6.804 57.1053 9.268 57.1053 12.04V18.816C57.1053 19.544 57.1893 20.524 57.2733 21H53.8573C53.7733 20.636 53.7173 19.88 53.7173 19.348C53.0173 20.44 51.7013 21.392 49.6573 21.392C46.7173 21.392 44.9253 19.404 44.9253 17.248ZM50.4413 18.62C52.0093 18.62 53.4653 17.864 53.4653 15.428V14.812L50.3573 15.288C49.4053 15.428 48.6493 15.96 48.6493 17.024C48.6493 17.836 49.2373 18.62 50.4413 18.62ZM65.3691 3.108V7.224H68.1411V10.528H65.3691V16.296C65.3691 17.5 65.9291 17.892 66.9931 17.892C67.4411 17.892 67.9451 17.836 68.1411 17.78V20.86C67.8051 21 67.1331 21.196 66.0411 21.196C63.3531 21.196 61.6731 19.6 61.6731 16.94V10.528H59.1811V7.224H59.8811C61.3371 7.224 62.0091 6.272 62.0091 5.04V3.108H65.3691ZM74.3448 12.908V21H70.6208V0.727999H74.3448V8.372C75.2408 7.308 76.7528 6.86 78.0688 6.86C81.5688 6.86 83.1928 9.296 83.1928 12.32V21H79.4688V12.964C79.4688 11.424 78.7128 10.22 76.9208 10.22C75.3528 10.22 74.4288 11.396 74.3448 12.908ZM89.6884 12.544H95.8484C95.7924 11.172 94.8964 9.828 92.7684 9.828C90.8364 9.828 89.7724 11.284 89.6884 12.544ZM96.2124 16.128L99.3204 17.052C98.6204 19.432 96.4364 21.42 93.0484 21.42C89.2684 21.42 85.9364 18.704 85.9364 14.056C85.9364 9.66 89.1844 6.804 92.7124 6.804C96.9684 6.804 99.5164 9.52 99.5164 13.944C99.5164 14.476 99.4604 15.036 99.4604 15.092H89.6044C89.6884 16.912 91.2284 18.228 93.0764 18.228C94.8124 18.228 95.7644 17.36 96.2124 16.128ZM110.849 7.168V10.92C110.429 10.836 110.065 10.808 109.729 10.808C107.825 10.808 106.173 11.732 106.173 14.7V21H102.449V7.224H106.061V9.268C106.901 7.448 108.805 7.112 109.981 7.112C110.289 7.112 110.569 7.14 110.849 7.168ZM6.5018 55H2.6098V35.148H15.1538V38.816H6.4738V43.716H14.2018V47.272H6.5018V55ZM23.3381 52.032C25.1581 52.032 26.8381 50.716 26.8381 48.112C26.8381 45.508 25.1581 44.192 23.3381 44.192C21.5181 44.192 19.8381 45.508 19.8381 48.112C19.8381 50.688 21.5181 52.032 23.3381 52.032ZM23.3381 40.804C27.4541 40.804 30.5621 43.856 30.5621 48.112C30.5621 52.34 27.4541 55.42 23.3381 55.42C19.2221 55.42 16.1141 52.34 16.1141 48.112C16.1141 43.856 19.2221 40.804 23.3381 40.804ZM41.9017 41.168V44.92C41.4817 44.836 41.1177 44.808 40.7817 44.808C38.8777 44.808 37.2257 45.732 37.2257 48.7V55H33.5017V41.224H37.1137V43.268C37.9537 41.448 39.8577 41.112 41.0337 41.112C41.3417 41.112 41.6217 41.14 41.9017 41.168ZM47.1005 46.544H53.2605C53.2045 45.172 52.3085 43.828 50.1805 43.828C48.2485 43.828 47.1845 45.284 47.1005 46.544ZM53.6245 50.128L56.7325 51.052C56.0325 53.432 53.8485 55.42 50.4605 55.42C46.6805 55.42 43.3485 52.704 43.3485 48.056C43.3485 43.66 46.5965 40.804 50.1245 40.804C54.3805 40.804 56.9285 43.52 56.9285 47.944C56.9285 48.476 56.8725 49.036 56.8725 49.092H47.0165C47.1005 50.912 48.6405 52.228 50.4885 52.228C52.2245 52.228 53.1765 51.36 53.6245 50.128ZM66.049 44.248C64.145 44.248 62.549 45.62 62.549 48.112C62.549 50.604 64.173 52.004 66.077 52.004C67.981 52.004 68.933 50.744 69.241 49.68L72.517 50.772C71.901 53.068 69.745 55.42 66.077 55.42C62.017 55.42 58.825 52.34 58.825 48.112C58.825 43.856 61.961 40.804 65.965 40.804C69.717 40.804 71.845 43.128 72.433 45.452L69.101 46.572C68.765 45.424 67.897 44.248 66.049 44.248ZM74.3609 51.248C74.3609 48.784 76.1809 47.412 78.4769 47.076L81.8649 46.572C82.6489 46.46 82.9009 46.068 82.9009 45.592C82.9009 44.612 82.1449 43.8 80.5769 43.8C78.9529 43.8 78.0569 44.836 77.9449 46.04L74.6409 45.34C74.8649 43.184 76.8529 40.804 80.5489 40.804C84.9169 40.804 86.5409 43.268 86.5409 46.04V52.816C86.5409 53.544 86.6249 54.524 86.7089 55H83.2929C83.2089 54.636 83.1529 53.88 83.1529 53.348C82.4529 54.44 81.1369 55.392 79.0929 55.392C76.1529 55.392 74.3609 53.404 74.3609 51.248ZM79.8769 52.62C81.4449 52.62 82.9009 51.864 82.9009 49.428V48.812L79.7929 49.288C78.8409 49.428 78.0849 49.96 78.0849 51.024C78.0849 51.836 78.6729 52.62 79.8769 52.62ZM89.1186 51.164L92.3106 50.464C92.3946 51.556 93.2066 52.564 94.8306 52.564C96.0626 52.564 96.6506 51.92 96.6506 51.192C96.6506 50.576 96.2306 50.072 95.1666 49.848L93.3466 49.428C90.6866 48.84 89.4826 47.244 89.4826 45.312C89.4826 42.848 91.6666 40.804 94.6346 40.804C98.5546 40.804 99.8706 43.296 100.039 44.78L96.9306 45.48C96.8186 44.668 96.2306 43.632 94.6626 43.632C93.6826 43.632 92.8986 44.22 92.8986 45.004C92.8986 45.676 93.4026 46.096 94.1586 46.236L96.1186 46.656C98.8346 47.216 100.207 48.868 100.207 50.884C100.207 53.124 98.4706 55.42 94.8586 55.42C90.7146 55.42 89.2866 52.732 89.1186 51.164ZM107.793 37.108V41.224H110.565V44.528H107.793V50.296C107.793 51.5 108.353 51.892 109.417 51.892C109.865 51.892 110.369 51.836 110.565 51.78V54.86C110.229 55 109.557 55.196 108.465 55.196C105.777 55.196 104.097 53.6 104.097 50.94V44.528H101.605V41.224H102.305C103.761 41.224 104.433 40.272 104.433 39.04V37.108H107.793Z" fill="#191825"/>
</svg>
